<?xml version="1.0" standalone="no"?>
<svg xmlns:xlink="http://www.w3.org/1999/xlink" id="wave" style="transform:rotate(180deg); transition: 0.3s" viewBox="0 0 1440 490" version="1.1" xmlns="http://www.w3.org/2000/svg"><defs><linearGradient id="sw-gradient-0" x1="0" x2="0" y1="1" y2="0"><stop stop-color="rgba(25, 20, 42, 1)" offset="0%"/><stop stop-color="rgba(77.892, 71.243, 100.499, 1)" offset="100%"/></linearGradient></defs><path style="transform:translate(0, 0px); opacity:1" fill="url(#sw-gradient-0)" d="M0,147L120,196C240,245,480,343,720,383.8C960,425,1200,408,1440,392C1680,376,1920,359,2160,351.2C2400,343,2640,343,2880,343C3120,343,3360,343,3600,318.5C3840,294,4080,245,4320,236.8C4560,229,4800,261,5040,261.3C5280,261,5520,229,5760,220.5C6000,212,6240,229,6480,253.2C6720,278,6960,310,7200,326.7C7440,343,7680,343,7920,334.8C8160,327,8400,310,8640,277.7C8880,245,9120,196,9360,220.5C9600,245,9840,343,10080,351.2C10320,359,10560,278,10800,269.5C11040,261,11280,327,11520,351.2C11760,376,12000,359,12240,302.2C12480,245,12720,147,12960,163.3C13200,180,13440,310,13680,318.5C13920,327,14160,212,14400,196C14640,180,14880,261,15120,277.7C15360,294,15600,245,15840,236.8C16080,229,16320,261,16560,285.8C16800,310,17040,327,17160,334.8L17280,343L17280,490L17160,490C17040,490,16800,490,16560,490C16320,490,16080,490,15840,490C15600,490,15360,490,15120,490C14880,490,14640,490,14400,490C14160,490,13920,490,13680,490C13440,490,13200,490,12960,490C12720,490,12480,490,12240,490C12000,490,11760,490,11520,490C11280,490,11040,490,10800,490C10560,490,10320,490,10080,490C9840,490,9600,490,9360,490C9120,490,8880,490,8640,490C8400,490,8160,490,7920,490C7680,490,7440,490,7200,490C6960,490,6720,490,6480,490C6240,490,6000,490,5760,490C5520,490,5280,490,5040,490C4800,490,4560,490,4320,490C4080,490,3840,490,3600,490C3360,490,3120,490,2880,490C2640,490,2400,490,2160,490C1920,490,1680,490,1440,490C1200,490,960,490,720,490C480,490,240,490,120,490L0,490Z"/></svg>